<svg width="30" height="33" viewBox="0 0 30 33" fill="none" xmlns="http://www.w3.org/2000/svg">
<path d="M2.528 23.16C2.05867 23.16 1.67467 23 1.376 22.68C1.09867 22.3387 0.96 21.9867 0.96 21.624C0.96 21.2613 1.07733 20.8453 1.312 20.376C1.54667 19.9067 1.89867 19.3413 2.368 18.68C2.85867 18.0187 3.34933 17.3787 3.84 16.76C4.33067 16.1413 4.96 15.3413 5.728 14.36C6.51733 13.3787 7.18933 12.5253 7.744 11.8C6.93333 10.712 5.86667 9.35733 4.544 7.736C3.22133 6.11467 2.29333 4.92 1.76 4.152C1.22667 3.36267 0.96 2.75467 0.96 2.328C0.96 1.90133 1.06667 1.528 1.28 1.208C1.51467 0.887999 1.90933 0.727999 2.464 0.727999C3.01867 0.727999 3.584 1.144 4.16 1.976C6.42133 5.64533 8.10667 8.23733 9.216 9.752C10.2827 8.30133 11.3813 6.68 12.512 4.888C13.6427 3.07467 14.2613 2.09333 14.368 1.944C14.88 1.13333 15.3707 0.727999 15.84 0.727999C16.7573 0.727999 17.216 1.18667 17.216 2.104C17.216 2.72267 16.704 3.69333 15.68 5.016C14.7413 6.18933 13.7493 7.384 12.704 8.6C11.68 9.816 10.9227 10.7333 10.432 11.352C10.9013 11.9493 11.6907 12.9733 12.8 14.424C13.9093 15.8533 14.72 16.8987 15.232 17.56C15.744 18.2 16.4587 19.1067 17.376 20.28C18.2933 21.4533 19.0187 22.3493 19.552 22.968C20.1067 23.5867 20.736 24.2693 21.44 25.016C22.6987 26.3813 23.712 27.2773 24.48 27.704C25.2693 28.1307 26.1227 28.5147 27.04 28.856C27.9787 29.1973 28.6293 29.4853 28.992 29.72C29.376 29.9547 29.568 30.2747 29.568 30.68C29.568 31.0853 29.376 31.448 28.992 31.768C28.6293 32.1093 28.1067 32.28 27.424 32.28C26.7627 32.28 26.0267 32.12 25.216 31.8C24.4267 31.48 23.6907 31.096 23.008 30.648C22.3253 30.2213 21.5467 29.5707 20.672 28.696C19.7973 27.8213 19.0507 27.032 18.432 26.328C17.8133 25.6453 17.0133 24.664 16.032 23.384C15.072 22.104 14.3147 21.0693 13.76 20.28C12.2027 18.1253 10.5813 15.832 8.896 13.4C6.82667 16.3013 5.248 19.1387 4.16 21.912C3.84 22.744 3.296 23.16 2.528 23.16Z" fill="black"/>
</svg>
