<svg width="45" height="43" viewBox="0 0 45 43" fill="none" xmlns="http://www.w3.org/2000/svg">
<path d="M1.3042 21.625C1.3042 10.1345 10.9101 0.780273 22.8007 0.780273C34.6792 0.780273 44.2973 10.1347 44.2973 21.625C44.2973 33.1153 34.6792 42.4697 22.8007 42.4697C10.9223 42.4697 1.3042 33.1153 1.3042 21.625ZM4.11511 21.625C4.11511 31.6601 12.4964 39.7718 22.8007 39.7718C33.105 39.7718 41.4864 31.6601 41.4864 21.625C41.4864 11.5899 33.105 3.47826 22.8007 3.47826C12.4964 3.47826 4.11511 11.5899 4.11511 21.625Z" fill="black" stroke="black"/>
<path d="M24.6503 7.61627C24.551 7.279 24.2283 7.03809 23.8683 7.03809C23.5083 7.03809 23.1732 7.26695 23.0739 7.61627L20.4794 16.3132C14.8438 16.012 10.3998 15.7591 10.0149 15.7109C9.64255 15.6627 9.25774 15.8675 9.10878 16.2048C8.82327 16.8793 8.77362 16.9757 17.9844 24.6728L15.1417 34.2129C15.0424 34.5501 15.1789 34.9115 15.4768 35.0922C15.7748 35.2849 16.172 35.2608 16.4451 35.044L23.5828 29.3344C27.282 32.394 30.3605 34.9236 30.5715 35.0801C30.7205 35.1886 30.8943 35.2367 31.0681 35.2367C31.2295 35.2367 31.3908 35.1886 31.5398 35.0922C31.9991 34.7911 32.2101 34.6465 29.4543 24.6366L37.0265 18.5657C37.2872 18.3609 37.3865 18.0116 37.2872 17.6984C37.1879 17.3852 36.89 17.1684 36.5548 17.1564C33.7121 17.0118 30.4598 16.8432 27.2323 16.6745C26.4875 14.0606 25.6434 11.0613 24.6628 7.62832L24.6503 7.61627ZM23.8435 10.7481C24.3773 12.6152 24.9359 14.5907 25.4945 16.5661C24.3648 16.5059 23.2476 16.4457 22.1677 16.3854L23.8559 10.7361L23.8435 10.7481ZM11.9887 17.4214C13.9003 17.5298 16.8299 17.6984 20.0202 17.867L18.4933 22.9744C15.8617 20.758 13.4535 18.7102 11.9887 17.4214ZM17.4506 32.1651L19.3498 25.793C19.4616 25.8894 19.5733 25.9737 19.685 26.0701C20.5663 26.8048 21.4477 27.5396 22.3166 28.2624L17.4506 32.1651ZM29.8143 32.3819C28.5854 31.3822 26.8227 29.9246 24.8614 28.2985L28.0392 25.7569C28.784 28.4792 29.4171 30.8281 29.8143 32.394V32.3819ZM34.37 18.6259L28.995 22.9382C28.6102 21.553 28.1758 20.0112 27.6916 18.2886C30.3357 18.4211 32.7191 18.5536 34.37 18.638V18.6259ZM23.6076 27.2505C22.3787 26.2387 21.1125 25.1667 19.8588 24.1307L21.696 17.9755C23.1111 18.0477 24.551 18.132 25.9538 18.2043C26.5248 20.2159 27.071 22.2155 27.5923 24.0826L23.6076 27.2746V27.2505Z" fill="black"/>
</svg>
