<svg width="51" height="51" viewBox="0 0 51 51" fill="none" xmlns="http://www.w3.org/2000/svg">
<path d="M41.5494 29.0276C41.5494 24.479 39.4867 20.0747 35.9449 17.0593C32.6179 14.231 27.058 12.0386 22.5923 13.0061C20.2986 13.5015 18.2238 14.6055 16.2219 15.7563C11.3226 18.5728 8.37646 23.4998 8.37646 29.0237C8.37646 32.9871 9.94474 36.8374 12.6882 39.7593C11.8494 41.2573 9.88801 44.8111 9.85964 45.3183C9.81912 46.0751 10.6944 50.7914 10.6944 50.7914C10.6944 50.7914 38.8465 51.1698 39.1463 50.7914C39.4422 50.4091 39.6407 45.1193 39.7907 44.581C39.9122 44.1285 37.4565 40.6097 36.642 39.4589C39.6813 36.8257 41.5535 33.2485 41.5535 29.0237L41.5494 29.0276ZM17.154 17.1334C18.9411 16.1074 20.7971 15.1204 22.8476 14.6757C26.8351 13.8097 31.8074 15.768 34.7778 18.2959C37.9428 20.9876 39.7866 24.9237 39.7866 28.9886C39.7866 34.2238 36.5731 38.3588 31.8115 40.6526C30.2878 41.386 28.9343 42.1116 27.2688 42.4939C22.9124 43.5004 18.5683 42.5798 15.1683 39.7008C11.9912 37.0091 10.1393 33.0652 10.1393 28.9886C10.1393 24.0499 12.7733 19.6495 17.1499 17.1295L17.154 17.1334ZM36.2813 48.8994C36.03 49.1413 13.7175 48.7902 13.7175 48.7902C13.7175 48.7902 13.3447 46.0127 13.7175 45.8683C14.6658 45.5016 36.026 45.7474 36.2813 45.8683C36.5366 45.9893 36.5325 48.6536 36.2813 48.8955V48.8994Z" fill="#060606"/>
<path d="M21.8345 41.4757C30.5432 43.5978 38.1009 33.7048 38.1009 33.7048C38.1009 33.7048 34.9927 27.982 31.8318 28.9105C28.671 29.8389 29.5503 32.632 24.963 33.4864C20.3757 34.3407 15.0387 28.0679 12.3722 32.7257C12.3722 32.7257 14.3579 39.65 21.8345 41.4757Z" fill="#060606"/>
<path d="M37.7438 29.2582C38.4571 28.4 38.0842 26.6757 36.7469 26.6523C36.3741 26.7265 36.2485 26.664 35.9162 26.8669C33.7117 28.2011 36.4714 30.7952 37.7438 29.2621V29.2582Z" fill="#060606"/>
<path d="M15.0787 29.4146C15.569 28.8255 15.3137 27.6396 14.3938 27.624C14.1385 27.6747 14.0494 27.6318 13.8225 27.7723C12.3069 28.689 14.2034 30.4718 15.0787 29.4185V29.4146Z" fill="#060606"/>
<path d="M31.3823 27.4987C32.9708 27.8225 34.2919 26.937 34.8673 25.5755C35.8804 23.1842 33.3071 21.0074 30.3894 22.3337C28.5172 23.6523 28.9994 27.0111 31.3823 27.4987Z" fill="#060606"/>
<path d="M24.3595 31.6403C24.8822 33.622 28.7847 31.2307 26.6005 29.998C25.1902 29.2061 23.6219 30.2438 24.3595 31.6403Z" fill="#060606"/>
<path d="M20.1615 27.9859C20.1615 26.8975 21.0773 26.012 22.212 26.012C21.0814 26.012 20.1615 25.1304 20.1615 24.0381C20.1615 25.1265 19.2456 26.012 18.111 26.012C19.2416 26.012 20.1615 26.8936 20.1615 27.9859Z" fill="#060606"/>
<path d="M15.6054 24.043C15.6054 23.3447 16.193 22.7752 16.9224 22.7752C16.197 22.7752 15.6054 22.2095 15.6054 21.5073C15.6054 22.2056 15.0178 22.7752 14.2883 22.7752C15.0137 22.7752 15.6054 23.3408 15.6054 24.043Z" fill="#060606"/>
<path d="M25.3197 24.3268C25.3197 22.1344 27.1676 20.3555 29.445 20.3555C27.1676 20.3555 25.3197 18.5767 25.3197 16.3843C25.3197 18.5767 23.4718 20.3555 21.1943 20.3555C23.4718 20.3555 25.3197 22.1344 25.3197 24.3268Z" fill="#060606"/>
<path d="M7.41659 31.3921L3.62355 31.7978C3.41687 31.8212 3.26288 32.0007 3.2872 32.2036C3.30746 32.3908 3.47361 32.5273 3.66407 32.5273C3.67623 32.5273 3.69244 32.5273 3.70459 32.5273L7.49764 32.1216C7.70431 32.0982 7.8583 31.9188 7.83399 31.7159C7.80968 31.5131 7.62327 31.3687 7.41254 31.3921H7.41659Z" fill="#060606"/>
<path d="M7.48905 24.1161L5.06976 23.921C4.85904 23.9054 4.67668 24.0537 4.66047 24.2565C4.64426 24.4594 4.79825 24.6349 5.00898 24.6505L7.42826 24.8456C7.42826 24.8456 7.44852 24.8456 7.46068 24.8456C7.6552 24.8456 7.82134 24.7013 7.83755 24.5101C7.85376 24.3073 7.69977 24.1317 7.48905 24.1161Z" fill="#060606"/>
<path d="M4.0443 24.2534C4.0443 24.0506 3.87409 23.8867 3.66337 23.8867H0.380926C0.170201 23.8867 0 24.0506 0 24.2534C0 24.4563 0.170201 24.6201 0.380926 24.6201H3.66742C3.87815 24.6201 4.04835 24.4563 4.04835 24.2534H4.0443Z" fill="#060606"/>
<path d="M3.4606 13.0877L11.2128 17.8704C11.2777 17.9094 11.3466 17.9289 11.4195 17.9289C11.5451 17.9289 11.6667 17.8704 11.7397 17.7611C11.8531 17.5895 11.8004 17.3632 11.6262 17.254L3.87395 12.4714C3.69564 12.3621 3.4606 12.4128 3.34714 12.5806C3.23367 12.7522 3.28635 12.9785 3.4606 13.0877Z" fill="#060606"/>
<path d="M14.738 14.7033C14.815 14.7891 14.9203 14.832 15.0297 14.832C15.1148 14.832 15.204 14.8047 15.2729 14.7462C15.435 14.6174 15.4552 14.3834 15.3175 14.2312L13.8383 12.5421C13.7046 12.3861 13.4615 12.3666 13.3034 12.4992C13.1413 12.6279 13.1211 12.862 13.2588 13.0141L14.738 14.7033Z" fill="#060606"/>
<path d="M12.227 12.0885C12.304 12.1705 12.4053 12.2095 12.5106 12.2095C12.5998 12.2095 12.6889 12.1783 12.7619 12.1159C12.9199 11.9832 12.9321 11.7492 12.7943 11.6009L11.7042 10.4228C11.5624 10.2707 11.3233 10.259 11.1693 10.3916C11.0112 10.5242 10.9991 10.7583 11.1369 10.9065L12.227 12.0846V12.0885Z" fill="#060606"/>
<path d="M24.9631 11.0315C25.1738 11.0315 25.344 10.8677 25.344 10.6648V7.58301C25.344 7.38015 25.1738 7.21631 24.9631 7.21631C24.7524 7.21631 24.5822 7.38015 24.5822 7.58301V10.6648C24.5822 10.8677 24.7524 11.0315 24.9631 11.0315Z" fill="#060606"/>
<path d="M24.9631 6.32746C25.1738 6.32746 25.344 6.16362 25.344 5.96077V0.366696C25.344 0.163843 25.1738 0 24.9631 0C24.7524 0 24.5822 0.163843 24.5822 0.366696V5.96467C24.5822 6.16752 24.7524 6.33136 24.9631 6.33136V6.32746Z" fill="#060606"/>
<path d="M19.403 11.9841C19.4638 12.1245 19.6056 12.2142 19.7556 12.2142C19.8042 12.2142 19.8528 12.2064 19.8974 12.1869C20.0919 12.1128 20.1851 11.8983 20.1081 11.711L17.4295 5.34064C17.3525 5.15339 17.1296 5.06367 16.9351 5.13779C16.7406 5.21191 16.6474 5.42647 16.7244 5.61371L19.403 11.9841Z" fill="#060606"/>
<path d="M47.3356 31.7978L43.5426 31.3921C43.3359 31.3687 43.1454 31.5131 43.1211 31.7159C43.0968 31.9149 43.2467 32.0982 43.4575 32.1216L47.2505 32.5273C47.2505 32.5273 47.2789 32.5273 47.291 32.5273C47.4815 32.5273 47.6476 32.3908 47.6679 32.2036C47.6922 32.0046 47.5423 31.8212 47.3316 31.7978H47.3356Z" fill="#060606"/>
<path d="M43.5026 24.8456C43.5026 24.8456 43.5228 24.8456 43.535 24.8456L45.9543 24.6505C46.165 24.6349 46.319 24.4555 46.3028 24.2565C46.2866 24.0537 46.1001 23.9054 45.8935 23.921L43.4742 24.1161C43.2635 24.1317 43.1095 24.3112 43.1257 24.5101C43.1419 24.7013 43.308 24.8456 43.5026 24.8456Z" fill="#060606"/>
<path d="M50.5826 23.8901H47.2961C47.0854 23.8901 46.9152 24.054 46.9152 24.2568C46.9152 24.4597 47.0854 24.6235 47.2961 24.6235H50.5826C50.7933 24.6235 50.9635 24.4597 50.9635 24.2568C50.9635 24.054 50.7933 23.8901 50.5826 23.8901Z" fill="#060606"/>
<path d="M39.2229 17.7621C39.2958 17.8713 39.4174 17.9299 39.543 17.9299C39.6119 17.9299 39.6849 17.9104 39.7497 17.8714L47.502 13.0887C47.6803 12.9795 47.7289 12.7532 47.6154 12.5816C47.502 12.4099 47.2669 12.3631 47.0886 12.4723L39.3364 17.255C39.1581 17.3642 39.1094 17.5905 39.2229 17.7621Z" fill="#060606"/>
<path d="M35.9322 14.8364C36.0416 14.8364 36.147 14.7935 36.224 14.7077L37.7031 13.0186C37.8369 12.8625 37.8166 12.6324 37.6585 12.5036C37.4965 12.3749 37.2574 12.3944 37.1236 12.5465L35.6445 14.2357C35.5108 14.3917 35.531 14.6219 35.6891 14.7506C35.762 14.8091 35.8471 14.8364 35.9322 14.8364Z" fill="#060606"/>
<path d="M38.4531 12.2096C38.5585 12.2096 38.6638 12.1667 38.7368 12.0887L39.8269 10.9105C39.9687 10.7584 39.9525 10.5282 39.7945 10.3956C39.6364 10.2591 39.3973 10.2747 39.2595 10.4268L38.1695 11.6049C38.0317 11.7571 38.0438 11.9872 38.2019 12.1199C38.2748 12.1823 38.364 12.2135 38.4531 12.2135V12.2096Z" fill="#060606"/>
<path d="M31.0657 12.1827C31.1143 12.2022 31.1589 12.21 31.2075 12.21C31.3575 12.21 31.4993 12.1242 31.5601 11.9798L34.2387 5.60948C34.3157 5.42223 34.2225 5.20767 34.028 5.13355C33.8335 5.05553 33.6106 5.14915 33.5336 5.3364L30.855 11.7068C30.778 11.894 30.8712 12.1086 31.0657 12.1827Z" fill="#060606"/>
</svg>
